<?xml version="1.0" encoding="UTF-8" standalone="no"?>
<!DOCTYPE svg PUBLIC "-//W3C//DTD SVG 1.1//EN"
 "http://www.w3.org/Graphics/SVG/1.1/DTD/svg11.dtd">
<!-- Generated by graphviz version 12.2.1 (20241206.2353)
 -->
<!-- Title: Def Pages: 1 -->
<svg width="375pt" height="356pt"
 viewBox="0.00 0.00 375.46 355.60" xmlns="http://www.w3.org/2000/svg" xmlns:xlink="http://www.w3.org/1999/xlink">
<g id="graph0" class="graph" transform="scale(1 1) rotate(0) translate(4 351.6)">
<title>Def</title>
<polygon fill="white" stroke="none" points="-4,4 -4,-351.6 371.46,-351.6 371.46,4 -4,4"/>
<!-- Start -->
<g id="node1" class="node">
<title>Start</title>
<ellipse fill="black" stroke="black" cx="139.27" cy="-345.8" rx="1.8" ry="1.8"/>
</g>
<!-- Idle -->
<g id="node2" class="node">
<title>Idle</title>
<ellipse fill="none" stroke="black" cx="139.27" cy="-276" rx="27" ry="18"/>
<text text-anchor="middle" x="139.27" y="-271.73" font-family="Arial" font-size="12.00">Idle</text>
</g>
<!-- Start&#45;&gt;Idle -->
<g id="edge1" class="edge">
<title>Start&#45;&gt;Idle</title>
<path fill="none" stroke="black" d="M139.27,-343.62C139.27,-338.98 139.27,-321.42 139.27,-305.49"/>
<polygon fill="black" stroke="black" points="142.77,-305.91 139.27,-295.91 135.77,-305.91 142.77,-305.91"/>
<text text-anchor="start" x="139.27" y="-320.35" font-family="Arial" text-decoration="underline" font-size="7.00">UCT</text>
<text text-anchor="start" x="140.02" y="-313.35" font-family="Arial" font-size="7.00">init()</text>
</g>
<!-- Connecting -->
<g id="node3" class="node">
<title>Connecting</title>
<ellipse fill="none" stroke="black" cx="54.27" cy="-190" rx="49.29" ry="18"/>
<text text-anchor="middle" x="54.27" y="-185.72" font-family="Arial" font-size="12.00">Connecting</text>
</g>
<!-- Idle&#45;&gt;Connecting -->
<g id="edge2" class="edge">
<title>Idle&#45;&gt;Connecting</title>
<path fill="none" stroke="black" d="M112.54,-271.96C76.89,-267.3 16.75,-257.07 3.52,-240 -4.55,-229.59 3.12,-219.27 14.73,-210.81"/>
<polygon fill="black" stroke="black" points="16.4,-213.9 22.91,-205.55 12.61,-208.02 16.4,-213.9"/>
<text text-anchor="start" x="12.89" y="-234.35" font-family="Arial" text-decoration="underline" font-size="7.00">ConnectReq</text>
<text text-anchor="start" x="3.52" y="-227.35" font-family="Arial" font-size="7.00">send_connect_tx()</text>
</g>
<!-- Connecting&#45;&gt;Idle -->
<g id="edge4" class="edge">
<title>Connecting&#45;&gt;Idle</title>
<path fill="none" stroke="black" d="M62.51,-208.18C67.9,-218.23 75.62,-230.72 84.77,-240 91.62,-246.95 100.08,-253.2 108.28,-258.44"/>
<polygon fill="black" stroke="black" points="106.35,-261.36 116.72,-263.52 109.96,-255.37 106.35,-261.36"/>
<text text-anchor="start" x="86.27" y="-234.35" font-family="Arial" text-decoration="underline" font-size="7.00">ConnectFail</text>
<text text-anchor="start" x="84.77" y="-227.35" font-family="Arial" font-size="7.00">mark_failed()</text>
</g>
<!-- Connected -->
<g id="node4" class="node">
<title>Connected</title>
<ellipse fill="none" stroke="black" cx="139.27" cy="-104" rx="47.38" ry="18"/>
<text text-anchor="middle" x="139.27" y="-99.72" font-family="Arial" font-size="12.00">Connected</text>
</g>
<!-- Connecting&#45;&gt;Connected -->
<g id="edge3" class="edge">
<title>Connecting&#45;&gt;Connected</title>
<path fill="none" stroke="black" d="M55.98,-171.96C57.77,-161.71 61.46,-148.97 69.02,-140 75.59,-132.2 84.33,-125.97 93.39,-121.06"/>
<polygon fill="black" stroke="black" points="94.85,-124.25 102.32,-116.73 91.79,-117.95 94.85,-124.25"/>
<text text-anchor="start" x="79.52" y="-148.35" font-family="Arial" text-decoration="underline" font-size="7.00">ConnectOk</text>
<text text-anchor="start" x="69.02" y="-141.35" font-family="Arial" font-size="7.00">mark_connected()</text>
</g>
<!-- Connected&#45;&gt;Idle -->
<g id="edge6" class="edge">
<title>Connected&#45;&gt;Idle</title>
<path fill="none" stroke="black" d="M139.27,-122.28C139.27,-151.46 139.27,-210.77 139.27,-246.28"/>
<polygon fill="black" stroke="black" points="135.77,-246.25 139.27,-256.25 142.77,-246.25 135.77,-246.25"/>
<text text-anchor="start" x="156.52" y="-191.35" font-family="Arial" text-decoration="underline" font-size="7.00">LinkDown</text>
<text text-anchor="start" x="139.27" y="-184.35" font-family="Arial" font-size="7.00">mark_disconnected()</text>
</g>
<!-- Disconnecting -->
<g id="node5" class="node">
<title>Disconnecting</title>
<ellipse fill="none" stroke="black" cx="232.27" cy="-18" rx="58.83" ry="18"/>
<text text-anchor="middle" x="232.27" y="-13.72" font-family="Arial" font-size="12.00">Disconnecting</text>
</g>
<!-- Connected&#45;&gt;Disconnecting -->
<g id="edge5" class="edge">
<title>Connected&#45;&gt;Disconnecting</title>
<path fill="none" stroke="black" d="M139.84,-85.86C141.01,-75.58 144.03,-62.83 151.52,-54 158.49,-45.78 167.74,-39.44 177.5,-34.56"/>
<polygon fill="black" stroke="black" points="178.67,-37.86 186.38,-30.6 175.82,-31.47 178.67,-37.86"/>
<text text-anchor="start" x="160.89" y="-62.35" font-family="Arial" text-decoration="underline" font-size="7.00">DisconnectReq</text>
<text text-anchor="start" x="151.52" y="-55.35" font-family="Arial" font-size="7.00">send_disconnect_tx()</text>
</g>
<!-- Disconnecting&#45;&gt;Idle -->
<g id="edge7" class="edge">
<title>Disconnecting&#45;&gt;Idle</title>
<path fill="none" stroke="black" d="M233.74,-36.25C235.93,-70.84 237.09,-150.3 208.27,-208 198.75,-227.05 181.6,-243.75 166.77,-255.71"/>
<polygon fill="black" stroke="black" points="164.91,-252.72 159.13,-261.6 169.19,-258.27 164.91,-252.72"/>
<text text-anchor="start" x="239.37" y="-148.35" font-family="Arial" text-decoration="underline" font-size="7.00">DisconnectOk</text>
<text text-anchor="start" x="228.87" y="-141.35" font-family="Arial" font-size="7.00">mark_disconnected()</text>
</g>
<!-- Disconnecting&#45;&gt;Idle -->
<g id="edge8" class="edge">
<title>Disconnecting&#45;&gt;Idle</title>
<path fill="none" stroke="black" d="M250.42,-35.43C275.98,-60.65 317.41,-110.55 298.27,-154 274.43,-208.12 211.84,-243.82 172.67,-261.63"/>
<polygon fill="black" stroke="black" points="171.43,-258.35 163.68,-265.57 174.25,-264.76 171.43,-258.35"/>
<text text-anchor="start" x="319.46" y="-148.35" font-family="Arial" text-decoration="underline" font-size="7.00">LinkDown</text>
<text text-anchor="start" x="302.21" y="-141.35" font-family="Arial" font-size="7.00">mark_disconnected()</text>
</g>
</g>
</svg>
