<?xml version="1.0" encoding="UTF-8" standalone="no"?>
<!DOCTYPE svg PUBLIC "-//W3C//DTD SVG 1.1//EN"
 "http://www.w3.org/Graphics/SVG/1.1/DTD/svg11.dtd">
<!-- Generated by graphviz version 12.2.1 (20241206.2353)
 -->
<!-- Title: Def Pages: 1 -->
<svg width="237pt" height="184pt"
 viewBox="0.00 0.00 237.02 183.60" xmlns="http://www.w3.org/2000/svg" xmlns:xlink="http://www.w3.org/1999/xlink">
<g id="graph0" class="graph" transform="scale(1 1) rotate(0) translate(4 179.6)">
<title>Def</title>
<polygon fill="white" stroke="none" points="-4,4 -4,-179.6 233.02,-179.6 233.02,4 -4,4"/>
<!-- Start -->
<g id="node1" class="node">
<title>Start</title>
<ellipse fill="black" stroke="black" cx="47.38" cy="-173.8" rx="1.8" ry="1.8"/>
</g>
<!-- Idle -->
<g id="node2" class="node">
<title>Idle</title>
<ellipse fill="none" stroke="black" cx="47.38" cy="-104" rx="27" ry="18"/>
<text text-anchor="middle" x="47.38" y="-99.72" font-family="Arial" font-size="12.00">Idle</text>
</g>
<!-- Start&#45;&gt;Idle -->
<g id="edge1" class="edge">
<title>Start&#45;&gt;Idle</title>
<path fill="none" stroke="black" d="M47.38,-171.62C47.38,-166.98 47.38,-149.42 47.38,-133.49"/>
<polygon fill="black" stroke="black" points="50.88,-133.91 47.38,-123.91 43.88,-133.91 50.88,-133.91"/>
<text text-anchor="start" x="47.38" y="-148.35" font-family="Arial" text-decoration="underline" font-size="7.00">UCT</text>
<text text-anchor="start" x="48.13" y="-141.35" font-family="Arial" font-size="7.00">init()</text>
</g>
<!-- Idle&#45;&gt;Idle -->
<g id="edge3" class="edge">
<title>Idle&#45;&gt;Idle</title>
<path fill="none" stroke="black" d="M71.92,-111.94C82.89,-112.69 92.38,-110.05 92.38,-104 92.38,-100.22 88.68,-97.77 83.22,-96.65"/>
<polygon fill="black" stroke="black" points="83.6,-93.16 73.43,-96.14 83.23,-100.15 83.6,-93.16"/>
<text text-anchor="start" x="94.26" y="-105.35" font-family="Arial" text-decoration="underline" font-size="7.00">ConnectRxFail</text>
<text text-anchor="start" x="92.38" y="-98.35" font-family="Arial" font-size="7.00">reject_connect()</text>
</g>
<!-- Connected -->
<g id="node3" class="node">
<title>Connected</title>
<ellipse fill="none" stroke="black" cx="47.38" cy="-18" rx="47.38" ry="18"/>
<text text-anchor="middle" x="47.38" y="-13.72" font-family="Arial" font-size="12.00">Connected</text>
</g>
<!-- Idle&#45;&gt;Connected -->
<g id="edge2" class="edge">
<title>Idle&#45;&gt;Connected</title>
<path fill="none" stroke="black" d="M30.76,-89.77C24.63,-83.84 18.38,-76.31 15.13,-68 11.76,-59.37 14.86,-50.68 20.26,-43.07"/>
<polygon fill="black" stroke="black" points="22.86,-45.41 26.72,-35.54 17.55,-40.85 22.86,-45.41"/>
<text text-anchor="start" x="15.13" y="-62.35" font-family="Arial" text-decoration="underline" font-size="7.00">ConnectRxOk</text>
<text text-anchor="start" x="16.26" y="-55.35" font-family="Arial" font-size="7.00">add_listener()</text>
</g>
<!-- Connected&#45;&gt;Idle -->
<g id="edge6" class="edge">
<title>Connected&#45;&gt;Idle</title>
<path fill="none" stroke="black" d="M55.09,-36.1C58.41,-45.46 61.17,-57.29 59.38,-68 58.99,-70.38 58.45,-72.81 57.82,-75.23"/>
<polygon fill="black" stroke="black" points="54.48,-74.17 54.85,-84.76 61.17,-76.25 54.48,-74.17"/>
<text text-anchor="start" x="59.94" y="-62.35" font-family="Arial" text-decoration="underline" font-size="7.00">LinkDown</text>
<text text-anchor="start" x="61.07" y="-55.35" font-family="Arial" font-size="7.00">drop_all()</text>
</g>
<!-- Connected&#45;&gt;Connected -->
<g id="edge4" class="edge">
<title>Connected&#45;&gt;Connected</title>
<path fill="none" stroke="black" d="M94.11,-21.94C104.87,-21.6 112.77,-20.29 112.77,-18 112.77,-16.64 109.98,-15.63 105.47,-14.95"/>
<polygon fill="black" stroke="black" points="105.86,-11.47 95.62,-14.18 105.31,-18.45 105.86,-11.47"/>
<text text-anchor="start" x="112.77" y="-19.35" font-family="Arial" text-decoration="underline" font-size="7.00">ConnectRxOk</text>
<text text-anchor="start" x="113.89" y="-12.35" font-family="Arial" font-size="7.00">add_listener()</text>
</g>
<!-- Connected&#45;&gt;Connected -->
<g id="edge5" class="edge">
<title>Connected&#45;&gt;Connected</title>
<path fill="none" stroke="black" d="M91.12,-25.37C122.81,-27.41 157.02,-24.95 157.02,-18 157.02,-11.86 130.36,-9.23 102.31,-10.1"/>
<polygon fill="black" stroke="black" points="102.45,-6.59 92.63,-10.56 102.79,-13.58 102.45,-6.59"/>
<text text-anchor="start" x="161.89" y="-19.35" font-family="Arial" text-decoration="underline" font-size="7.00">DisconnectRx</text>
<text text-anchor="start" x="157.02" y="-12.35" font-family="Arial" font-size="7.00">remove_listener()</text>
</g>
</g>
</svg>
