<?xml version="1.0" encoding="UTF-8" standalone="no"?>
<!DOCTYPE svg PUBLIC "-//W3C//DTD SVG 1.1//EN"
 "http://www.w3.org/Graphics/SVG/1.1/DTD/svg11.dtd">
<!-- Generated by graphviz version 12.2.1 (20241206.2353)
 -->
<!-- Title: Def Pages: 1 -->
<svg width="149pt" height="184pt"
 viewBox="0.00 0.00 149.05 183.60" xmlns="http://www.w3.org/2000/svg" xmlns:xlink="http://www.w3.org/1999/xlink">
<g id="graph0" class="graph" transform="scale(1 1) rotate(0) translate(4 179.6)">
<title>Def</title>
<polygon fill="white" stroke="none" points="-4,4 -4,-179.6 145.05,-179.6 145.05,4 -4,4"/>
<!-- Start -->
<g id="node1" class="node">
<title>Start</title>
<ellipse fill="black" stroke="black" cx="40.13" cy="-173.8" rx="1.8" ry="1.8"/>
</g>
<!-- Active -->
<g id="node3" class="node">
<title>Active</title>
<ellipse fill="none" stroke="black" cx="40.13" cy="-104" rx="31.17" ry="18"/>
<text text-anchor="middle" x="40.13" y="-99.72" font-family="Arial" font-size="12.00">Active</text>
</g>
<!-- Start&#45;&gt;Active -->
<g id="edge1" class="edge">
<title>Start&#45;&gt;Active</title>
<path fill="none" stroke="black" d="M40.13,-171.62C40.13,-166.98 40.13,-149.42 40.13,-133.49"/>
<polygon fill="black" stroke="black" points="43.63,-133.91 40.13,-123.91 36.63,-133.91 43.63,-133.91"/>
<text text-anchor="start" x="43.13" y="-148.35" font-family="Arial" text-decoration="underline" font-size="7.00">UCT</text>
<text text-anchor="start" x="40.13" y="-141.35" font-family="Arial" font-size="7.00">a_init()</text>
</g>
<!-- Passive -->
<g id="node2" class="node">
<title>Passive</title>
<ellipse fill="none" stroke="black" cx="40.13" cy="-18" rx="37.37" ry="18"/>
<text text-anchor="middle" x="40.13" y="-13.72" font-family="Arial" font-size="12.00">Passive</text>
</g>
<!-- Passive&#45;&gt;Active -->
<g id="edge2" class="edge">
<title>Passive&#45;&gt;Active</title>
<path fill="none" stroke="black" d="M48.31,-35.7C50.68,-41.37 52.95,-47.83 54.13,-54 55.5,-61.1 54.57,-68.66 52.67,-75.66"/>
<polygon fill="black" stroke="black" points="49.41,-74.37 49.43,-84.96 56.02,-76.67 49.41,-74.37"/>
<text text-anchor="start" x="57.78" y="-62.35" font-family="Arial" text-decoration="underline" font-size="7.00">PeriodicEnable</text>
<text text-anchor="start" x="54.78" y="-55.35" font-family="Arial" font-size="7.00">a_restart_timer()</text>
</g>
<!-- Active&#45;&gt;Passive -->
<g id="edge4" class="edge">
<title>Active&#45;&gt;Passive</title>
<path fill="none" stroke="black" d="M20.22,-90C13.12,-84.2 5.95,-76.71 2.13,-68 -2.13,-58.27 2.54,-48.76 9.89,-40.74"/>
<polygon fill="black" stroke="black" points="12.2,-43.38 17.15,-34.01 7.44,-38.24 12.2,-43.38"/>
<text text-anchor="start" x="2.13" y="-59.48" font-family="Arial" text-decoration="underline" font-size="7.00">PeriodicDisable</text>
</g>
<!-- Active&#45;&gt;Active -->
<g id="edge3" class="edge">
<title>Active&#45;&gt;Active</title>
<path fill="none" stroke="black" d="M68.43,-112.01C79.77,-112.47 89.3,-109.79 89.3,-104 89.3,-100.29 85.39,-97.86 79.6,-96.71"/>
<polygon fill="black" stroke="black" points="80.14,-93.24 69.94,-96.08 79.69,-100.22 80.14,-93.24"/>
<text text-anchor="start" x="102.8" y="-105.35" font-family="Arial" text-decoration="underline" font-size="7.00">Periodic</text>
<text text-anchor="start" x="89.3" y="-98.35" font-family="Arial" font-size="7.00">a_restart_timer()</text>
</g>
</g>
</svg>
