<?xml version="1.0" encoding="UTF-8" standalone="no"?>
<!DOCTYPE svg PUBLIC "-//W3C//DTD SVG 1.1//EN"
 "http://www.w3.org/Graphics/SVG/1.1/DTD/svg11.dtd">
<!-- Generated by graphviz version 12.2.1 (20241206.2353)
 -->
<!-- Title: ListenerDef Pages: 1 -->
<svg width="792pt" height="264pt"
 viewBox="0.00 0.00 792.39 263.85" xmlns="http://www.w3.org/2000/svg" xmlns:xlink="http://www.w3.org/1999/xlink">
<g id="graph0" class="graph" transform="scale(1 1) rotate(0) translate(4 259.85)">
<title>ListenerDef</title>
<polygon fill="white" stroke="none" points="-4,4 -4,-259.85 788.39,-259.85 788.39,4 -4,4"/>
<!-- Start -->
<g id="node1" class="node">
<title>Start</title>
<ellipse fill="black" stroke="black" cx="295.27" cy="-254.05" rx="1.8" ry="1.8"/>
</g>
<!-- Waiting -->
<g id="node2" class="node">
<title>Waiting</title>
<ellipse fill="none" stroke="black" cx="295.27" cy="-190" rx="35.94" ry="18"/>
<text text-anchor="middle" x="295.27" y="-185.72" font-family="Arial" font-size="12.00">Waiting</text>
</g>
<!-- Start&#45;&gt;Waiting -->
<g id="edge1" class="edge">
<title>Start&#45;&gt;Waiting</title>
<path fill="none" stroke="black" d="M295.27,-251.97C295.27,-247.97 295.27,-233.5 295.27,-219.66"/>
<polygon fill="black" stroke="black" points="298.77,-219.94 295.27,-209.94 291.77,-219.94 298.77,-219.94"/>
<text text-anchor="start" x="295.27" y="-228.6" font-family="Arial" text-decoration="underline" font-size="7.00">UCT</text>
</g>
<!-- Waiting&#45;&gt;Waiting -->
<g id="edge5" class="edge">
<title>Waiting&#45;&gt;Waiting</title>
<path fill="none" stroke="black" d="M330.8,-193.75C341.17,-193.62 349.2,-192.37 349.2,-190 349.2,-188.63 346.52,-187.63 342.25,-187.01"/>
<polygon fill="black" stroke="black" points="342.52,-183.52 332.31,-186.35 342.06,-190.51 342.52,-183.52"/>
<text text-anchor="start" x="363.08" y="-191.35" font-family="Arial" text-decoration="underline" font-size="7.00">RcvdConnectTxResp</text>
<text text-anchor="start" x="349.2" y="-184.35" font-family="Arial" font-size="7.00">handle_connect_tx_response()</text>
</g>
<!-- Waiting&#45;&gt;Waiting -->
<g id="edge6" class="edge">
<title>Waiting&#45;&gt;Waiting</title>
<path fill="none" stroke="black" d="M329.76,-195.73C375.12,-199.37 444.45,-197.46 444.45,-190 444.45,-183.13 385.78,-180.97 341.07,-183.5"/>
<polygon fill="black" stroke="black" points="341.01,-180 331.27,-184.17 341.49,-186.98 341.01,-180"/>
<text text-anchor="start" x="453.83" y="-191.35" font-family="Arial" text-decoration="underline" font-size="7.00">TxTimeout</text>
<text text-anchor="start" x="444.45" y="-184.35" font-family="Arial" font-size="7.00">handle_timeout()</text>
</g>
<!-- ConnectTxCmd -->
<g id="node3" class="node">
<title>ConnectTxCmd</title>
<ellipse fill="none" stroke="black" cx="132.27" cy="-104" rx="63.6" ry="18"/>
<text text-anchor="middle" x="132.27" y="-99.72" font-family="Arial" font-size="12.00">ConnectTxCmd</text>
</g>
<!-- Waiting&#45;&gt;ConnectTxCmd -->
<g id="edge2" class="edge">
<title>Waiting&#45;&gt;ConnectTxCmd</title>
<path fill="none" stroke="black" d="M259.69,-186.71C215.47,-183.04 143.84,-174.08 127.52,-154 122.85,-148.25 121.88,-140.79 122.65,-133.42"/>
<polygon fill="black" stroke="black" points="126.07,-134.18 124.69,-123.67 119.21,-132.74 126.07,-134.18"/>
<text text-anchor="start" x="127.52" y="-145.47" font-family="Arial" text-decoration="underline" font-size="7.00">RcvdConnectRx</text>
</g>
<!-- DisconnectTxCmd -->
<g id="node4" class="node">
<title>DisconnectTxCmd</title>
<ellipse fill="none" stroke="black" cx="515.27" cy="-104" rx="73.14" ry="18"/>
<text text-anchor="middle" x="515.27" y="-99.72" font-family="Arial" font-size="12.00">DisconnectTxCmd</text>
</g>
<!-- Waiting&#45;&gt;DisconnectTxCmd -->
<g id="edge3" class="edge">
<title>Waiting&#45;&gt;DisconnectTxCmd</title>
<path fill="none" stroke="black" d="M323.13,-178.36C359.13,-164.62 422.39,-140.46 466.45,-123.64"/>
<polygon fill="black" stroke="black" points="467.42,-127.02 475.52,-120.18 464.93,-120.48 467.42,-127.02"/>
<text text-anchor="start" x="418.44" y="-145.47" font-family="Arial" text-decoration="underline" font-size="7.00">RcvdDisconnectRx</text>
</g>
<!-- GetState -->
<g id="node7" class="node">
<title>GetState</title>
<ellipse fill="none" stroke="black" cx="253.27" cy="-104" rx="39.75" ry="18"/>
<text text-anchor="middle" x="253.27" y="-99.72" font-family="Arial" font-size="12.00">GetState</text>
</g>
<!-- Waiting&#45;&gt;GetState -->
<g id="edge4" class="edge">
<title>Waiting&#45;&gt;GetState</title>
<path fill="none" stroke="black" d="M277.49,-174.18C271.7,-168.46 265.8,-161.48 262.02,-154 258.82,-147.68 256.77,-140.38 255.47,-133.37"/>
<polygon fill="black" stroke="black" points="258.95,-133.02 254.11,-123.6 252.02,-133.98 258.95,-133.02"/>
<text text-anchor="start" x="262.02" y="-145.47" font-family="Arial" text-decoration="underline" font-size="7.00">RcvdGetRxState</text>
</g>
<!-- ConnectTxResp -->
<g id="node5" class="node">
<title>ConnectTxResp</title>
<ellipse fill="none" stroke="black" cx="132.27" cy="-18" rx="65.51" ry="18"/>
<text text-anchor="middle" x="132.27" y="-13.72" font-family="Arial" font-size="12.00">ConnectTxResp</text>
</g>
<!-- ConnectTxCmd&#45;&gt;ConnectTxResp -->
<g id="edge7" class="edge">
<title>ConnectTxCmd&#45;&gt;ConnectTxResp</title>
<path fill="none" stroke="black" d="M132.27,-85.6C132.27,-74.67 132.27,-60.32 132.27,-47.73"/>
<polygon fill="black" stroke="black" points="135.77,-47.9 132.27,-37.9 128.77,-47.9 135.77,-47.9"/>
<text text-anchor="start" x="153.64" y="-62.35" font-family="Arial" text-decoration="underline" font-size="7.00">UCT</text>
<text text-anchor="start" x="132.27" y="-55.35" font-family="Arial" font-size="7.00">send_connect_tx()</text>
</g>
<!-- DisconnectTxResp -->
<g id="node6" class="node">
<title>DisconnectTxResp</title>
<ellipse fill="none" stroke="black" cx="624.27" cy="-18" rx="75.05" ry="18"/>
<text text-anchor="middle" x="624.27" y="-13.72" font-family="Arial" font-size="12.00">DisconnectTxResp</text>
</g>
<!-- DisconnectTxCmd&#45;&gt;DisconnectTxResp -->
<g id="edge8" class="edge">
<title>DisconnectTxCmd&#45;&gt;DisconnectTxResp</title>
<path fill="none" stroke="black" d="M521.92,-85.72C526.64,-75.39 533.85,-62.63 543.52,-54 550.89,-47.42 559.69,-41.94 568.73,-37.41"/>
<polygon fill="black" stroke="black" points="569.97,-40.69 577.59,-33.33 567.04,-34.33 569.97,-40.69"/>
<text text-anchor="start" x="569.39" y="-62.35" font-family="Arial" text-decoration="underline" font-size="7.00">UCT</text>
<text text-anchor="start" x="543.52" y="-55.35" font-family="Arial" font-size="7.00">send_disconnect_tx()</text>
</g>
<!-- ConnectTxResp&#45;&gt;Waiting -->
<g id="edge9" class="edge">
<title>ConnectTxResp&#45;&gt;Waiting</title>
<path fill="none" stroke="black" d="M188.61,-27.43C226.04,-35.96 273.44,-52.85 302.27,-86 306.99,-91.42 321.19,-131.69 315.27,-154 314.49,-156.94 313.39,-159.9 312.12,-162.77"/>
<polygon fill="black" stroke="black" points="309.17,-160.86 307.62,-171.34 315.37,-164.11 309.17,-160.86"/>
<text text-anchor="start" x="328.49" y="-105.35" font-family="Arial" text-decoration="underline" font-size="7.00">RcvdConnectTxResp</text>
<text text-anchor="start" x="314.61" y="-98.35" font-family="Arial" font-size="7.00">handle_connect_tx_response()</text>
</g>
<!-- ConnectTxResp&#45;&gt;Waiting -->
<g id="edge10" class="edge">
<title>ConnectTxResp&#45;&gt;Waiting</title>
<path fill="none" stroke="black" d="M91.41,-32.52C44.78,-50.17 -21.52,-83.39 7.52,-122 36.12,-160.04 174.46,-178.14 248.41,-185.21"/>
<polygon fill="black" stroke="black" points="247.91,-188.68 258.19,-186.12 248.56,-181.71 247.91,-188.68"/>
<text text-anchor="start" x="16.89" y="-105.35" font-family="Arial" text-decoration="underline" font-size="7.00">TxTimeout</text>
<text text-anchor="start" x="7.52" y="-98.35" font-family="Arial" font-size="7.00">handle_timeout()</text>
</g>
<!-- DisconnectTxResp&#45;&gt;Waiting -->
<g id="edge11" class="edge">
<title>DisconnectTxResp&#45;&gt;Waiting</title>
<path fill="none" stroke="black" d="M624.68,-36.48C624.24,-59.27 619.95,-98.93 597.27,-122 562.09,-157.79 417.3,-177.04 341.7,-184.81"/>
<polygon fill="black" stroke="black" points="341.74,-181.29 332.14,-185.77 342.44,-188.26 341.74,-181.29"/>
<text text-anchor="start" x="631.14" y="-105.35" font-family="Arial" text-decoration="underline" font-size="7.00">RcvdDisconnectTxResp</text>
<text text-anchor="start" x="617.26" y="-98.35" font-family="Arial" font-size="7.00">handle_disconnect_tx_response()</text>
</g>
<!-- DisconnectTxResp&#45;&gt;Waiting -->
<g id="edge12" class="edge">
<title>DisconnectTxResp&#45;&gt;Waiting</title>
<path fill="none" stroke="black" d="M658.95,-34.43C697.98,-53.9 752.6,-88.86 725.27,-122 677.47,-179.96 444.43,-188.3 342.8,-189.14"/>
<polygon fill="black" stroke="black" points="342.86,-185.64 332.89,-189.2 342.91,-192.64 342.86,-185.64"/>
<text text-anchor="start" x="742.01" y="-105.35" font-family="Arial" text-decoration="underline" font-size="7.00">TxTimeout</text>
<text text-anchor="start" x="732.64" y="-98.35" font-family="Arial" font-size="7.00">handle_timeout()</text>
</g>
<!-- GetState&#45;&gt;Waiting -->
<g id="edge13" class="edge">
<title>GetState&#45;&gt;Waiting</title>
<path fill="none" stroke="black" d="M223.92,-116.6C207.83,-123.62 190.26,-132.61 185.77,-140 182.54,-145.32 182.1,-148.97 185.77,-154 200.02,-173.51 225.27,-182.4 247.94,-186.34"/>
<polygon fill="black" stroke="black" points="247.25,-189.78 257.64,-187.73 248.24,-182.85 247.25,-189.78"/>
<text text-anchor="start" x="212.02" y="-148.35" font-family="Arial" text-decoration="underline" font-size="7.00">UCT</text>
<text text-anchor="start" x="185.77" y="-141.35" font-family="Arial" font-size="7.00">handle_get_rx_state()</text>
</g>
</g>
</svg>
