<?xml version="1.0" encoding="UTF-8" standalone="no"?>
<!DOCTYPE svg PUBLIC "-//W3C//DTD SVG 1.1//EN"
 "http://www.w3.org/Graphics/SVG/1.1/DTD/svg11.dtd">
<!-- Generated by graphviz version 12.2.1 (20241206.2353)
 -->
<!-- Title: DiscoveryDef Pages: 1 -->
<svg width="296pt" height="92pt"
 viewBox="0.00 0.00 295.87 91.85" xmlns="http://www.w3.org/2000/svg" xmlns:xlink="http://www.w3.org/1999/xlink">
<g id="graph0" class="graph" transform="scale(1 1) rotate(0) translate(4 87.85)">
<title>DiscoveryDef</title>
<polygon fill="white" stroke="none" points="-4,4 -4,-87.85 291.87,-87.85 291.87,4 -4,4"/>
<!-- Start -->
<g id="node1" class="node">
<title>Start</title>
<ellipse fill="black" stroke="black" cx="35.94" cy="-82.05" rx="1.8" ry="1.8"/>
</g>
<!-- Waiting -->
<g id="node2" class="node">
<title>Waiting</title>
<ellipse fill="none" stroke="black" cx="35.94" cy="-18" rx="35.94" ry="18"/>
<text text-anchor="middle" x="35.94" y="-13.72" font-family="Arial" font-size="12.00">Waiting</text>
</g>
<!-- Start&#45;&gt;Waiting -->
<g id="edge1" class="edge">
<title>Start&#45;&gt;Waiting</title>
<path fill="none" stroke="black" d="M35.94,-79.97C35.94,-75.97 35.94,-61.5 35.94,-47.66"/>
<polygon fill="black" stroke="black" points="39.44,-47.94 35.94,-37.94 32.44,-47.94 39.44,-47.94"/>
<text text-anchor="start" x="35.94" y="-56.6" font-family="Arial" text-decoration="underline" font-size="7.00">UCT</text>
</g>
<!-- Waiting&#45;&gt;Waiting -->
<g id="edge2" class="edge">
<title>Waiting&#45;&gt;Waiting</title>
<path fill="none" stroke="black" d="M71.98,-20.5C82.1,-20.39 89.87,-19.55 89.87,-18 89.87,-17.13 87.41,-16.48 83.46,-16.06"/>
<polygon fill="black" stroke="black" points="83.65,-12.57 73.49,-15.58 83.31,-19.56 83.65,-12.57"/>
<text text-anchor="start" x="95.5" y="-19.35" font-family="Arial" text-decoration="underline" font-size="7.00">RcvdAvailable</text>
<text text-anchor="start" x="89.87" y="-12.35" font-family="Arial" font-size="7.00">handle_available()</text>
</g>
<!-- Waiting&#45;&gt;Waiting -->
<g id="edge3" class="edge">
<title>Waiting&#45;&gt;Waiting</title>
<path fill="none" stroke="black" d="M71.38,-22.28C104.52,-24.05 145.37,-22.62 145.37,-18 145.37,-13.9 113.25,-12.31 82.87,-13.24"/>
<polygon fill="black" stroke="black" points="82.74,-9.74 72.89,-13.66 83.03,-16.74 82.74,-9.74"/>
<text text-anchor="start" x="150.62" y="-19.35" font-family="Arial" text-decoration="underline" font-size="7.00">RcvdDeparting</text>
<text text-anchor="start" x="145.37" y="-12.35" font-family="Arial" font-size="7.00">handle_departing()</text>
</g>
<!-- Waiting&#45;&gt;Waiting -->
<g id="edge4" class="edge">
<title>Waiting&#45;&gt;Waiting</title>
<path fill="none" stroke="black" d="M70.66,-23.34C121.56,-27.5 202.37,-25.72 202.37,-18 202.37,-10.84 132.82,-8.79 82.12,-11.85"/>
<polygon fill="black" stroke="black" points="81.89,-8.36 72.17,-12.56 82.39,-15.34 81.89,-8.36"/>
<text text-anchor="start" x="208.75" y="-19.35" font-family="Arial" text-decoration="underline" font-size="7.00">DoDiscover</text>
<text text-anchor="start" x="202.37" y="-12.35" font-family="Arial" font-size="7.00">send_discover()</text>
</g>
</g>
</svg>
